# AST/ASF file generated using VICON BodyLanguage
# -----------------------------------------------
:version 1.10
:name VICON
:units
  mass 1.0
  length 0.45
  angle deg
:documentation
   .ast/.asf automatically generated from VICON data using
   VICON BodyBuilder and BodyLanguage model FoxedUp or BRILLIANT.MOD
:root
   order TX TY TZ RX RY RZ
   axis XYZ
   position 0 0 0  
   orientation 0 0 0 
:bonedata
  begin
     id 1 
     name lhipjoint
     direction 0.756833 -0.6125 0.228138 
     length 2.53827 
     axis 0 0 0  XYZ
  end
  begin
     id 2 
     name lfemur
     direction 0.34202 -0.939693 0  
     length 6.51821  
     axis 0 0 20  XYZ
    dof rx ry rz
    limits (-160.0 20.0)
           (-70.0 70.0)
           (-60.0 70.0)
  end
  begin
     id 3 
     name ltibia
     direction 0.34202 -0.939693 0   
     length 6.99902   
     axis 0 0 20   XYZ
    dof rx
    limits (-10.0 170.0)
  end
  begin
     id 4 
     name lfoot
     direction 0.0951515 -0.261427 0.960522   
     length 1.92102   
     axis -90 7.62852e-016 20   XYZ
    dof rx rz
    limits (-45.0 90.0)
           (-70.0 20.0)
  end
  begin
     id 5 
     name ltoes
     direction 1.53539e-011 -4.21781e-011 1   
     length 0.964376   
     axis -90 7.62852e-016 20   XYZ
    dof rx
    limits (-90.0 20.0)
  end
  begin
     id 6 
     name rhipjoint
     direction -0.752153 -0.617542 0.230017   
     length 2.51754  
     axis 0 0 0  XYZ 
  end
  begin
     id 7 
     name rfemur
     direction -0.34202 -0.939693 0   
     length 6.82377   
     axis 0 0 -20   XYZ
    dof rx ry rz
    limits (-160.0 20.0)
           (-70.0 70.0)
           (-70.0 60.0)
  end
  begin
     id 8 
     name rtibia
     direction -0.34202 -0.939693 0   
     length 6.98689   
     axis 0 0 -20   XYZ
    dof rx
    limits (-10.0 170.0)
 end
 begin
     id 9 
     name rfoot
     direction -0.0900426 -0.24739 0.964723   
     length 2.03215  
     axis -90 -7.62852e-016 -20   XYZ
    dof rx rz
    limits (-45.0 90.0)
           (-20.0 70.0)
  end
  begin
     id 10 
     name rtoes
     direction -1.53466e-011 -4.22206e-011 1   
     length 1.0197   
     axis -90 -7.62852e-016 -20   XYZ
    dof rx
    limits (-90.0 20.0)
  end
  begin
     id 11 
     name lowerback
     direction 0.0184183 0.995705 -0.0907278   
     length 2.019   
     axis 0 0 0   XYZ
    dof rx ry rz
    limits (-20.0 45.0)
           (-30.0 30.0)
           (-30.0 30.0)
  end
  begin
     id 12 
     name upperback
     direction 0.00281055 0.998777 0.0493607   
     length 1.99623   
     axis 0 0 0   XYZ
    dof rx ry rz
    limits (-20.0 45.0)
           (-30.0 30.0)
           (-30.0 30.0)
  end
  begin
     id 13 
     name thorax
     direction -0.00665507 0.995706 0.092331   
     length 2.02811   
     axis 0 0 0   XYZ
    dof rx ry rz
    limits (-20.0 45.0)
           (-30.0 30.0)
           (-30.0 30.0)
  end
  begin
     id 14 
     name lowerneck
     direction -0.0960965 0.994358 0.0449225   
     length 1.71265   
     axis 0 0 0   XYZ
    dof rx ry rz
    limits (-20.0 45.0)
           (-30.0 30.0)
           (-30.0 30.0)
  end
  begin
     id 15 
     name upperneck
     direction 0.13642 0.985357 -0.102278   
     length 1.73016   
     axis 0 0 0   XYZ
    dof rx ry rz
    limits (-20.0 45.0)
           (-30.0 30.0)
           (-30.0 30.0)
  end
  begin
     id 16
     name head
     direction 0.0556079 0.997632 -0.040479  
     length 1.74275  
     axis 0 0 0   XYZ
    dof rx ry rz
    limits (-20.0 45.0)
           (-30.0 30.0)
           (-30.0 30.0)
  end
  begin
     id 17 
     name lclavicle
     direction 0.90877 0.417247 -0.00652364  
     length 3.25514  
     axis 0 0 0   XYZ
    dof ry rz
    limits (-20.0 10.0)
           (0.0 20.0)
  end
  begin
     id 18 
     name lhumerus
     direction 1 -4.48949e-011 8.31417e-028   
     length 4.84834   
     axis 180 -30 -90   XYZ
    dof rx ry rz
    limits (-60.0 90.0)
           (-90.0 90.0)
           (-90.0 90.0)
  end
  begin
     id 19
     name lradius
     direction 1 -4.48984e-011 3.45616e-027   
     length 2.99713   
     axis 180 -30 -90   XYZ
    dof rx
    limits (-10.0 170.0)
  end
  begin
     id 20
     name lwrist
     direction 1 -4.4891e-011 4.0479e-027   
     length 1.49857   
     axis -1.61768e-015 90 90   XYZ
    dof ry
    limits (-180.0 0.0)
 end
  begin
     id 21 
     name lhand
     direction 1 -4.49025e-011 8.0958e-027   
     length 0.693987   
     axis -5.16581e-015 90 90   XYZ
    dof rx rz
    limits (-90.0 90.0)
           (-45.0 45.0)
  end
  begin
     id 22 
     name lfingers
     direction 1 -4.4888e-011 1.61916e-026   
     length 0.55951   
     axis -1.03316e-014 90 90   XYZ
    dof rx
    limits (0.0 90.0)
  end
  begin
     id 23
     name lthumb
     direction 0.707107 -6.3493e-011 0.707107   
     length 0.803348   
     axis -90 45 2.85299e-015   XYZ
    dof rx rz
    limits (-45.0 45.0)
           (-45.0 45.0)
  end
  begin
     id 24 
     name rclavicle
     direction -0.906655 0.41906 0.0486307   
     length 3.3311  
     axis 0 0 0   XYZ 
    dof ry rz
    limits (-10.0 20.0)
           (-20.0 0.0)
  end
  begin
     id 25 
     name rhumerus
     direction -1 -4.48959e-011 6.37764e-018  
     length 4.93457   
     axis 180 30 90   XYZ
    dof rx ry rz
    limits (-90.0 60.0)
           (-90.0 90.0)
           (-90.0 90.0)
  end
  begin
     id 26 
     name rradius
     direction -1 -4.48957e-011 2.20847e-027   
     length 3.3443   
     axis 180 30 90   XYZ
    dof rx
    limits (-10.0 170.0)
  end
  begin
     id 27 
     name rwrist
     direction -1 -4.49008e-011 4.0479e-027   
     length 1.67215   
     axis -1.61768e-015 -90 -90   XYZ
    dof ry
    limits (-180.0 0.0)
  end
  begin
     id 28
     name rhand
     direction -1 -4.49013e-011 8.0958e-027   
     length 0.677363   
     axis -5.16581e-015 -90 -90   XYZ
    dof rx rz
    limits (-90.0 90.0)
           (-45.0 45.0)
  end
  begin
     id 29
     name rfingers
     direction -1 -4.48832e-011 1.61916e-026   
     length 0.546107   
     axis -1.03316e-014 -90 -90   XYZ
    dof rx
    limits (0.0 90.0)
  end
  begin
     id 30
     name rthumb
     direction -0.707107 -6.34895e-011 0.707107   
     length 0.784104   
     axis -90 -45 -2.85299e-015   XYZ
    dof rx rz
    limits (-45.0 45.0)
           (-45.0 45.0)
  end
:hierarchy
  begin
    root lhipjoint rhipjoint lowerback
    lhipjoint lfemur
    lfemur ltibia
    ltibia lfoot
    lfoot ltoes
    rhipjoint rfemur
    rfemur rtibia
    rtibia rfoot
    rfoot rtoes
    lowerback upperback
    upperback thorax
    thorax lowerneck lclavicle rclavicle
    lowerneck upperneck
    upperneck head
    lclavicle lhumerus
    lhumerus lradius
    lradius lwrist
    lwrist lhand lthumb
    lhand lfingers
    rclavicle rhumerus
    rhumerus rradius
    rradius rwrist
    rwrist rhand rthumb
    rhand rfingers
  end

#!OML:ASF H:\Terrain\Patient Classification 1\junglegym\FridayTest\junglegym.ASF
:FULLY-SPECIFIED
:DEGREES
33
root 8.72804 16.3085 -36.1192 3.69387 2.03142 -5.89867
lowerback 2.71495 -1.79279 3.23244
upperback -3.57164 -2.09778 2.82909
thorax -5.23504 -1.10582 1.27553
lowerneck -5.15537 -2.36673 -15.7921
upperneck 12.2828 -3.36809 13.6718
head 4.98575 -1.60004 6.77614
rclavicle 2.14812e-014 -2.40529e-014
rhumerus -43.0659 -14.5196 -71.8482
rradius 15.6058
rwrist 18.1362
rhand -13.9629 24.3938
rfingers 7.12502
rthumb 12.1649 -5.23254
lclavicle 2.14812e-014 -2.40529e-014
lhumerus -36.7212 7.67124 80.2249
lradius 24.2746
lwrist -29.5009
lhand -5.70614 24.2998
lfingers 7.12502
lthumb 20.1148 53.2784
rfemur -18.8308 2.77584 32.7362
rtibia 23.1247
rfoot -5.63229 -8.44032
rtoes 23.4905
lfemur -21.7445 2.66647 -13.0776
ltibia 73.6735
lfoot 6.33845 -1.72553
ltoes -25.1846
34
root 8.72114 16.3272 -35.9477 3.80053 1.71636 -5.9754
lowerback 3.07287 -1.69475 3.41969
upperback -3.7152 -1.93417 2.76538
thorax -5.59959 -1.03616 1.11053
lowerneck -5.4322 -2.3132 -15.8534
upperneck 12.599 -3.29562 13.8543
head 5.12091 -1.55045 6.85955
rclavicle 2.12575e-014 -2.82274e-014
rhumerus -42.2995 -13.7181 -72.7136
rradius 15.7925
rwrist 17.3816
rhand -14.2979 23.9997
rfingers 7.12502
rthumb 11.8418 -5.64548
lclavicle 2.12575e-014 -2.82274e-014
lhumerus -37.4213 7.45284 80.2643
lradius 24.5336
lwrist -28.9255
lhand -5.08296 24.6063
lfingers 7.12502
lthumb 20.7137 53.5208
rfemur -18.3299 3.24955 32.8526
rtibia 23.4192
rfoot -6.57683 -8.47468
rtoes 23.9236
lfemur -23.5868 2.76945 -13.2359
ltibia 74.1087
lfoot 5.87937 -3.47157
ltoes -29.1181
35
root 8.71495 16.3427 -35.777 3.94062 1.34061 -5.84829
lowerback 2.27639 -1.43132 3.14877
upperback -3.20695 -1.65888 2.76708
thorax -4.59975 -0.88093 1.20151
lowerneck -5.53106 -2.44982 -15.9091
upperneck 12.148 -3.42778 13.8609
head 5.02411 -1.60992 6.85228
rclavicle 8.16881e-016 -2.36554e-014
rhumerus -40.581 -12.7978 -73.8147
rradius 16.1024
rwrist 16.1403
rhand -14.7345 24.0771
rfingers 7.12502
rthumb 11.4208 -5.59188
lclavicle 8.16881e-016 -2.36554e-014
lhumerus -37.0011 7.30629 80.7214
lradius 24.546
lwrist -28.5219
lhand -4.97576 24.4628
lfingers 7.12502
lthumb 20.8167 53.3661
rfemur -17.8335 3.65135 32.7729
rtibia 23.5892
rfoot -7.34616 -8.47297
rtoes 24.1948
lfemur -25.351 2.87922 -13.6155
ltibia 74.31
lfoot 5.76528 -3.61124
ltoes -30.2787
36
root 8.70953 16.3522 -35.6038 3.8935 1.01248 -5.73783
lowerback 2.83008 -1.16136 3.13109
upperback -3.52248 -1.26841 2.52472
thorax -5.24913 -0.696765 0.956631
lowerneck -5.02385 -2.50727 -15.4399
upperneck 12.3173 -3.61361 13.6385
head 5.00443 -1.71042 6.68938
rclavicle -2.08475e-014 1.07344e-014
rhumerus -40.4885 -12.0973 -74.5839
rradius 16.5772
rwrist 15.2644
rhand -14.8797 24.4199
rfingers 7.12502
rthumb 11.2808 -5.25678
lclavicle -2.08475e-014 1.07344e-014
lhumerus -37.9785 6.64134 80.6649
lradius 24.6365
lwrist -28.264
lhand -4.95225 24.3255
lfingers 7.12502
lthumb 20.8393 53.2263
rfemur -17.1391 3.90775 32.7299
rtibia 23.8479
rfoot -8.64086 -8.43196
rtoes 27.1545
lfemur -26.7211 2.84731 -13.932
ltibia 74.3475
lfoot 6.10284 -2.78489
ltoes -23.1047
37
root 8.70554 16.3466 -35.4343 3.94578 0.774947 -5.6346
lowerback 2.87283 -0.959082 3.15061
upperback -3.54243 -1.0038 2.31067
thorax -5.29615 -0.571278 0.705123
lowerneck -4.83714 -2.54934 -15.2782
upperneck 12.3624 -3.72976 13.7333
head 5.00117 -1.76132 6.68773
rclavicle 1.28278e-015 3.47873e-015
rhumerus -39.8388 -11.8188 -75.2482
rradius 16.8842
rwrist 14.765
rhand -15.9326 26.1699
rfingers 7.12502
rthumb 10.2652 -3.55964
lclavicle 1.28278e-015 3.47873e-015
lhumerus -38.5574 6.01051 80.7041
lradius 24.8188
lwrist -27.8573
lhand -4.72436 24.0625
lfingers 7.12502
lthumb 21.0582 52.9391
rfemur -16.6621 3.97517 32.7026
rtibia 24.2417
rfoot -10.3542 -8.17303
rtoes 31.8066
lfemur -28.2126 2.67727 -14.2987
ltibia 74.2503
lfoot 6.25451 -2.04445
ltoes -19.6536
38
root 8.70146 16.3369 -35.2699 4.10252 0.582488 -5.3876
lowerback 2.87021 -0.867329 3.00263
upperback -3.5413 -0.896861 2.14975
thorax -5.29142 -0.515943 0.612659
lowerneck -4.79329 -2.49459 -15.3719
upperneck 12.3624 -3.6815 13.9661
head 4.99032 -1.73079 6.78601
rclavicle -6.11341e-015 -3.40419e-015
rhumerus -38.9251 -11.027 -76.0966
rradius 17.2545
rwrist 13.9852
rhand -16.7842 27.234
rfingers 7.12502
rthumb 9.44358 -2.53443
lclavicle -6.11341e-015 -3.40419e-015
lhumerus -39.1104 5.54676 80.8986
lradius 25.1126
lwrist -27.3538
lhand -4.37753 24.0231
lfingers 7.12502
lthumb 21.3914 52.8622
rfemur -16.4279 4.03606 32.5126
rtibia 24.7579
rfoot -11.2017 -8.0109
rtoes 32.3239
lfemur -29.8796 2.30802 -14.8268
ltibia 74.0714
lfoot 5.91802 -1.55268
ltoes -19.4929
39
root 8.69113 16.3256 -35.1027 4.10495 0.322957 -5.50219
lowerback 3.14241 -0.696905 3.21174
upperback -3.58742 -0.649999 1.99329
thorax -5.49745 -0.407201 0.319779
lowerneck -4.67595 -2.50472 -15.1726
upperneck 12.4213 -3.74197 14.0131
head 4.99341 -1.75302 6.76535
rclavicle -2.80162e-015 6.5102e-015
rhumerus -38.1848 -10.6407 -76.7722
rradius 17.573
rwrist 13.4009
rhand -16.7639 27.3362
rfingers 7.12502
rthumb 9.46312 -2.43131
lclavicle -2.80162e-015 6.5102e-015
lhumerus -39.6844 4.56628 81.1573
lradius 25.4928
lwrist -26.5859
lhand -3.99375 24.3702
lfingers 7.12502
lthumb 21.76 53.1671
rfemur -16.0085 4.31995 32.7389
rtibia 25.332
rfoot -11.2802 -8.18551
rtoes 29.0091
lfemur -31.361 2.15702 -14.7976
ltibia 73.8626
lfoot 5.27576 -1.49039
ltoes -20.2221
